<?xml version="1.0" encoding="UTF-8"?>
<svg xmlns="http://www.w3.org/2000/svg" xmlns:xlink="http://www.w3.org/1999/xlink" viewBox="0 0 24 24" version="1.1" width="24px" height="24px">
<g id="surface1">
<path style=" " d="M 4.3125 0 L 0.1875 18.96875 L 5.65625 18.96875 L 7 12.6875 L 10.90625 12.6875 C 14.648438 12.6875 17.789063 10.390625 18.625 6.46875 C 19.574219 2.027344 16.394531 0 13.65625 0 Z M 8.96875 3.875 L 11.625 3.875 C 12.964844 3.875 13.859375 5.027344 13.46875 6.46875 C 13.132813 7.910156 11.742188 9.0625 10.34375 9.0625 L 7.78125 9.0625 Z M 20.96875 5.4375 C 20.964844 6.007813 20.925781 6.605469 20.78125 7.28125 C 20.410156 9.027344 19.644531 10.570313 18.59375 11.78125 C 18.152344 13.085938 16.863281 14.09375 15.5625 14.09375 L 15.5 14.09375 C 14.238281 14.667969 12.8125 14.96875 11.28125 14.96875 L 8.84375 14.96875 L 7.8125 19.8125 L 7.5 21.25 L 6 21.25 L 5.40625 24 L 10.875 24 L 12.21875 17.71875 L 16.125 17.71875 C 19.867188 17.71875 23.003906 15.390625 23.84375 11.46875 C 24.546875 8.171875 22.945313 6.230469 20.96875 5.4375 Z "/>
</g>
</svg>
